<?xml version="1.0" ?><svg data-name="Layer 1" id="Layer_1" viewBox="0 0 64 64" xmlns="http://www.w3.org/2000/svg"><title/><desc/><path d="M25.56,32.16a8.2,8.2,0,0,0-1.5-.14c-.25,0-.49,0-.73,0a9.22,9.22,0,0,1-8.39-3.44A32.75,32.75,0,0,1,8.61,12L8.3,8.64A12.64,12.64,0,0,1,6,7,12.65,12.65,0,0,1,3.06,18h0A21.8,21.8,0,0,1,5.89,31l-.16,1.59,1.46.66a21.79,21.79,0,0,1,8.9,7.45,17,17,0,0,1,1,1.52l.66-.38a9.83,9.83,0,0,1,1.43-.68A8.19,8.19,0,0,1,19.06,40c0-.25,0-.49,0-.73a.43.43,0,0,0,0-.11c0-.2.05-.41.08-.61l0,0A7.89,7.89,0,0,1,21,34.84h0A8,8,0,0,1,25.56,32.16Z" style="fill:#cff09e"/><circle cx="27.06" cy="40.02" r="8" style="fill:#a8dba8"/><path d="M56.37,26.29a20.34,20.34,0,0,1-5,2.76,20.72,20.72,0,0,1-17.66-1.31,22.4,22.4,0,0,1-3.6,4.91,8,8,0,0,1,4.51,4.75h0A8.19,8.19,0,0,1,37.06,37a8,8,0,0,1,7.24,4.6A21.76,21.76,0,0,1,53.12,38l1.58-.26L55,36.19a21.87,21.87,0,0,1,6.1-11.86h0c-.19-.38-.35-.78-.51-1.18Z" style="fill:#cff09e"/><path d="M37.06,37a8.19,8.19,0,0,0-2.44.38A8.09,8.09,0,0,1,35.06,40a8,8,0,0,1-5.55,7.61A8,8,0,1,0,37.06,37Z" style="fill:#79bd9a"/><path d="M29.51,47.63h0a7.91,7.91,0,0,1-2.45.39,8,8,0,0,1-7.12-4.37A8,8,0,1,0,31.06,51a7.19,7.19,0,0,0,0-.81A8.12,8.12,0,0,1,29.51,47.63Z" style="fill:#79bd9a"/><circle cx="30.06" cy="37.02" r="2" style="fill:#cff09e"/><circle cx="39.06" cy="42.02" r="2" style="fill:#a8dba8"/><circle cx="22.06" cy="52.02" r="2" style="fill:#a8dba8"/><path d="M10.94,17.59h0a.39.39,0,0,0,.08.1v0l0,0h0a.1.1,0,0,0,.05,0l0,0,0,0,0,0h0a.05.05,0,0,0,0,0h0l.05,0h0l0,0h.15a1,1,0,0,0,.24,0H12l0,0,.06,0h0l0,0h0l0,0h0a.1.1,0,0,0,.05,0h0l0,0,0,0,0,0,0,0,0,0,0-.05h0l0-.05v0l0,0h0l0-.07h0l0-.07h0l0-.1.91-3.4a1,1,0,0,0-1.93-.52l-.29,1.09-.56-1a1,1,0,0,0-1.74,1l1.77,3.06Z" style="fill:#3b8686"/><path d="M12.89,21l.79,1.38-1.76-.48a1,1,0,0,0-1.23.71,1,1,0,0,0,.71,1.22l4.1,1.1a.78.78,0,0,0,.26,0,1,1,0,0,0,1-.74l1.1-4.1a1,1,0,1,0-1.93-.52l-.47,1.77L14.62,20a1,1,0,0,0-1.73,1Z" style="fill:#3b8686"/><path d="M56.44,20.18H55.32l.79-.8A1,1,0,1,0,54.7,18l-2.5,2.5a1,1,0,0,0,.7,1.71h3.54a1,1,0,0,0,0-2Z" style="fill:#3b8686"/><path d="M51.49,25.83H49.66l1.12-1.12a1,1,0,1,0-1.41-1.41l-1.12,1.12V22.59a1,1,0,0,0-2,0v4.24a1,1,0,0,0,1,1h4.24a1,1,0,0,0,0-2Z" style="fill:#3b8686"/><path d="M62,13.47a1,1,0,0,0-1.35-1.35,11.66,11.66,0,0,1-10.41,0,1,1,0,0,0-1.16.19,20.73,20.73,0,0,1-11.31,5.82l-1.58.27a1,1,0,0,0-.82.82l-.27,1.58a20.75,20.75,0,0,1-4.65,10,20.82,20.82,0,0,1-1.32-9.57l.15-1.59a1,1,0,0,0-.58-1L27.2,18a20.82,20.82,0,0,1-9.42-8.55A1,1,0,0,0,16.72,9,11.73,11.73,0,0,1,6.65,6.27a1,1,0,0,0-1.16-.12A1,1,0,0,0,5,7.22a11.7,11.7,0,0,1-2.7,10.06,1,1,0,0,0-.11,1.17A20.75,20.75,0,0,1,4.89,30.88l-.15,1.59a1,1,0,0,0,.58,1l1.46.66A20.78,20.78,0,0,1,16.2,42.7a1,1,0,0,0,.86.5,1,1,0,0,0,.5-.14l.66-.38.21-.11c.06.2.13.41.21.61A9,9,0,1,0,32,52.42,9,9,0,0,0,45.54,42a20.88,20.88,0,0,1,7.74-3l1.58-.27a1,1,0,0,0,.82-.82L56,36.35A20.73,20.73,0,0,1,61.77,25,1,1,0,0,0,62,23.88,11.69,11.69,0,0,1,62,13.47ZM33.64,37.63s0,0,0,.08l.05.12A6.88,6.88,0,0,1,34.06,40a7,7,0,0,1-4.82,6.65l-.06,0h0a6.93,6.93,0,0,1-2.1.32,7,7,0,0,1-6.19-3.74v0l-.07-.14a6.82,6.82,0,0,1-.64-2,1,1,0,0,0,0-.24,6.36,6.36,0,0,1-.06-.87,7,7,0,0,1,.88-3.39l.06-.11a6.86,6.86,0,0,1,1.25-1.58l.14-.13a6.85,6.85,0,0,1,2.29-1.37l.19-.07A6.93,6.93,0,0,1,27.06,33a6.84,6.84,0,0,1,2.49.46,1.2,1.2,0,0,0,.37.15A7,7,0,0,1,33.64,37.63ZM17.41,40.84A22.73,22.73,0,0,0,7.6,32.32L6.8,32l.08-.89a22.7,22.7,0,0,0-2.61-13,13.71,13.71,0,0,0,3-8.88,13.69,13.69,0,0,0,9.17,1.87,22.74,22.74,0,0,0,10,8.77l.8.37-.08.88a22.89,22.89,0,0,0,1.28,10.05,8.2,8.2,0,0,0-1.32-.1,9.71,9.71,0,0,0-1.21.08l.2-.74a1,1,0,0,0-.7-1.23,1,1,0,0,0-1.23.71l-.5,1.86a9,9,0,0,0-1.69.93l-.71-1.24,2.68-8.71A1,1,0,0,0,22,22.09L19.85,29l-1.49-2.59a1,1,0,0,0-1.74,1l1.44,2.48-6.89-1.84A1,1,0,0,0,10.65,30l8.82,2.36L20.4,34a9.78,9.78,0,0,0-.75,1l-3-.79a1,1,0,0,0-1.23.71,1,1,0,0,0,.71,1.22l2.51.68A8.9,8.9,0,0,0,18.06,40c0,.16,0,.33,0,.49ZM23.06,58A7,7,0,0,1,19.55,45,9,9,0,0,0,27.06,49a9.28,9.28,0,0,0,1.85-.19,9.27,9.27,0,0,0,1.14,1.82c0,.12,0,.24,0,.37A7,7,0,0,1,23.06,58Zm14-6a7,7,0,0,1-5.18-2.3,1,1,0,0,0-.25-.3,6.34,6.34,0,0,1-.8-1.23A9,9,0,0,0,36.06,40a9.14,9.14,0,0,0-.2-1.9L36.5,38h.14a1,1,0,0,0,.25,0h.17a7.15,7.15,0,0,1,2.14.33.58.58,0,0,0,.17.06,7,7,0,0,1,4,3.54,1.63,1.63,0,0,0,.09.19A6.92,6.92,0,0,1,44.06,45,7,7,0,0,1,37.06,52ZM54,36l-.14.88L53,37a23.05,23.05,0,0,0-8.3,3.15,9.37,9.37,0,0,0-1.45-1.75h.51a1,1,0,1,0,0-2H39.78l-.57-.16L41.46,34l9.11.33h0a1,1,0,0,0,0-2l-7.25-.27L45.5,30a1,1,0,1,0-1.41-1.41l-2,2V23.47a1,1,0,0,0-2,0v9.14L37.64,35V30.37a1,1,0,0,0-2,0v5.76l-.42.08a9.15,9.15,0,0,0-3.47-3.87A22.75,22.75,0,0,0,37,21.13l.14-.88.88-.14A22.7,22.7,0,0,0,50,14.22a13.72,13.72,0,0,0,9.34.56,13.81,13.81,0,0,0,.57,9.35A22.7,22.7,0,0,0,54,36Z" style="fill:#3b8686"/><path d="M37.06,48a3,3,0,0,1-1.24-.27A1,1,0,1,0,35,49.56a4.85,4.85,0,0,0,2.08.46,1,1,0,0,0,0-2Z" style="fill:#3b8686"/><path d="M27.06,43a3,3,0,0,1-3-3,1,1,0,0,0-2,0,5,5,0,0,0,5,5,1,1,0,0,0,0-2Z" style="fill:#3b8686"/><path d="M23.06,54a3,3,0,0,1-3-3,1,1,0,0,0-2,0,5,5,0,0,0,5,5,1,1,0,0,0,0-2Z" style="fill:#3b8686"/></svg>