<?xml version="1.0" ?><svg data-name="Layer 1" id="Layer_1" viewBox="0 0 64 64" xmlns="http://www.w3.org/2000/svg"><title/><desc/><path d="M14.46,7.59a2.49,2.49,0,0,1-2.8,0L7.06,16h12Z" style="fill:#a8dba8"/><path d="M7.06,29h12a4,4,0,0,1,4,4V45a0,0,0,0,1,0,0h-20a0,0,0,0,1,0,0V33A4,4,0,0,1,7.06,29Z" style="fill:#a8dba8"/><rect height="16" style="fill:#a8dba8" width="12" x="7.06" y="45.02"/><polygon points="13.06 35.02 10.06 29.02 16.06 29.02 13.06 35.02" style="fill:#79bd9a"/><path d="M10.06,24V22h8V20h-10v4a5,5,0,0,0,5,5,5.47,5.47,0,0,0,1-.1A5,5,0,0,1,10.06,24Z" style="fill:#cff09e"/><path d="M21.06,18h-14a2,2,0,0,1-2-1.74,2,2,0,0,0-1,1.74,2,2,0,0,0,2,2h14a2,2,0,0,0,2-2,1.1,1.1,0,0,0,0-.26A2,2,0,0,1,21.06,18Z" style="fill:#cff09e"/><path d="M14.56,7a2.5,2.5,0,0,1-2.5-2.5,2.47,2.47,0,0,1,.46-1.44A2.5,2.5,0,1,0,15.1,7,2.35,2.35,0,0,1,14.56,7Z" style="fill:#cff09e"/><path d="M3.06,45v2a2,2,0,0,0,2,2,2,2,0,0,0,1.82-1.18,2,2,0,0,1-.82.18,2,2,0,0,1-2-2h2l1,1V45Z" style="fill:#cff09e"/><path d="M22.06,48a2,2,0,0,1-2-2h3V45h-4v2a2,2,0,0,0,2,2,2,2,0,0,0,1.82-1.18A2,2,0,0,1,22.06,48Z" style="fill:#cff09e"/><path d="M45.06,33h12a4,4,0,0,1,4,4V49a0,0,0,0,1,0,0h-20a0,0,0,0,1,0,0V37A4,4,0,0,1,45.06,33Z" style="fill:#a8dba8"/><rect height="12" style="fill:#a8dba8" width="12" x="45.06" y="49.02"/><polygon points="51.06 39.02 48.06 33.02 54.06 33.02 51.06 39.02" style="fill:#79bd9a"/><path d="M57.34,20H44.78a8,8,0,0,0-2.72,6,4,4,0,0,0,4,4h.42a5.11,5.11,0,0,1-.42-2V24h10v4a4.94,4.94,0,0,1-.42,2h.42a4,4,0,0,0,4-4A8,8,0,0,0,57.34,20Z" style="fill:#79bd9a"/><path d="M52.46,7.59a2.49,2.49,0,0,1-2.8,0L45.06,16h12Z" style="fill:#a8dba8"/><path d="M59.06,18h-14a2,2,0,0,1-2-1.74,2,2,0,0,0-1,1.74,2,2,0,0,0,2,2h14a2,2,0,0,0,2-2,1.1,1.1,0,0,0,0-.26A2,2,0,0,1,59.06,18Z" style="fill:#cff09e"/><path d="M52.56,7a2.5,2.5,0,0,1-2.5-2.5,2.47,2.47,0,0,1,.46-1.44A2.5,2.5,0,1,0,53.1,7,2.35,2.35,0,0,1,52.56,7Z" style="fill:#cff09e"/><path d="M48.06,28V26h8V24h-10v4a5,5,0,0,0,5,5,5.47,5.47,0,0,0,1-.1A5,5,0,0,1,48.06,28Z" style="fill:#cff09e"/><path d="M41.06,49v2a2,2,0,0,0,2,2,2,2,0,0,0,1.82-1.18,2,2,0,0,1-.82.18,2,2,0,0,1-2-2h2l1,1V49Z" style="fill:#cff09e"/><path d="M60.06,52a2,2,0,0,1-2-2h3V49h-4v2a2,2,0,0,0,2,2,2,2,0,0,0,1.82-1.18A2,2,0,0,1,60.06,52Z" style="fill:#cff09e"/><rect height="10" rx="2" ry="2" style="fill:#a8dba8" width="10" x="27.06" y="46.02"/><rect height="5" style="fill:#a8dba8" width="6" x="29.06" y="56.02"/><path d="M32.53,30a1.87,1.87,0,0,1-.94,0L29.06,35h6Z" style="fill:#a8dba8"/><path d="M33.06,29a2,2,0,0,1-2-2,2,2,0,0,1,.18-.82A2,2,0,0,0,30.06,28a2,2,0,0,0,2,2,2,2,0,0,0,1.82-1.18A2,2,0,0,1,33.06,29Z" style="fill:#cff09e"/><path d="M36.06,37h-6a2,2,0,0,1-2-1.74,2,2,0,0,0-1,1.74,2,2,0,0,0,2,2h6a2,2,0,0,0,2-2,1.1,1.1,0,0,0,0-.26A2,2,0,0,1,36.06,37Z" style="fill:#cff09e"/><path d="M30.06,42a4,4,0,0,1,1.38-3h-2a4,4,0,0,0,2.62,7,4.09,4.09,0,0,0,1-.13A4,4,0,0,1,30.06,42Z" style="fill:#cff09e"/><path d="M28.61,40h6.9a3.82,3.82,0,0,0-.83-1H29.44A3.82,3.82,0,0,0,28.61,40Z" style="fill:#cff09e"/><path d="M19.06,28H17.53a6,6,0,0,0,1.53-4V21h1a3,3,0,0,0,0-6h-.41L15.72,7.8A3.5,3.5,0,1,0,9.56,5.52a3.49,3.49,0,0,0,.85,2.28L6.47,15H6.06a3,3,0,0,0,0,6h1v3a6,6,0,0,0,1.53,4H7.06a5,5,0,0,0-5,5V47a3,3,0,0,0,4,2.83V61a1,1,0,0,0,2,0V46h10V61a1,1,0,0,0,2,0V49.85a3,3,0,0,0,4-2.83V33A5,5,0,0,0,19.06,28Zm-4.62,2-1.38,2.76L11.68,30ZM13.06,4a1.5,1.5,0,1,1-1.5,1.5A1.5,1.5,0,0,1,13.06,4Zm-1,4.86a3.5,3.5,0,0,0,1,.14,3.45,3.45,0,0,0,1-.14L17.38,15H8.75ZM5.06,18a1,1,0,0,1,1-1h14a1,1,0,0,1,0,2h-14A1,1,0,0,1,5.06,18Zm12,3v3a4,4,0,1,1-8,0V21Zm-12,27a1,1,0,0,1-1-1V46h2v1A1,1,0,0,1,5.06,48Zm3-4V35a1,1,0,0,0-2,0v9h-2V33a3,3,0,0,1,3-3H9.44l2.73,5.45a1,1,0,0,0,.89.55,1,1,0,0,0,.9-.55L16.68,30h2.38a3,3,0,0,1,3,3V44h-2V35a1,1,0,0,0-2,0v9Zm14,3a1,1,0,0,1-2,0V46h2Z" style="fill:#3b8686"/><path d="M13.06,50a1,1,0,0,0-1,1V61a1,1,0,0,0,2,0V51A1,1,0,0,0,13.06,50Z" style="fill:#3b8686"/><path d="M57.06,32H55.53a6,6,0,0,0,.73-1,5,5,0,0,0,4.8-5,9,9,0,0,0-1.72-5.29A3,3,0,0,0,58.06,15h-.41L53.72,7.8a3.5,3.5,0,1,0-6.16-2.28,3.49,3.49,0,0,0,.85,2.28L44.47,15h-.41a3,3,0,0,0-1.27,5.71A9,9,0,0,0,41.06,26a5,5,0,0,0,4.8,5,6.66,6.66,0,0,0,.73,1H45.06a5,5,0,0,0-5,5V51a3,3,0,0,0,4,2.83V61a1,1,0,1,0,2,0V50h10V61a1,1,0,1,0,2,0V53.85a3,3,0,0,0,4-2.83V37A5,5,0,0,0,57.06,32Zm-4.62,2-1.38,2.76L49.68,34Zm-5-4.33,0-.07a3.87,3.87,0,0,1-.34-1.6V25h8v3a3.87,3.87,0,0,1-.34,1.6.14.14,0,0,0,0,.07,4,4,0,0,1-7.27,0ZM51.06,4a1.5,1.5,0,1,1-1.5,1.5A1.5,1.5,0,0,1,51.06,4Zm-1,4.86a3.5,3.5,0,0,0,1,.14,3.45,3.45,0,0,0,1-.14L55.38,15H46.75Zm-6,8.14h14a1,1,0,0,1,0,2h-14a1,1,0,0,1,0-2Zm-1,9a7,7,0,0,1,2.11-5H57a7,7,0,0,1,2.11,5A3,3,0,0,1,57,28.87c0-.14,0-.28,0-.42h0a1.09,1.09,0,0,1,0-.18V24a1,1,0,0,0-1-1h-10a1,1,0,0,0-1,1v4a1.21,1.21,0,0,0,0,.19v.05a1.09,1.09,0,0,0,0,.18h0c0,.14,0,.28,0,.42A3,3,0,0,1,43.06,26Zm0,26a1,1,0,0,1-1-1V50h2v1A1,1,0,0,1,43.06,52Zm3-4V39a1,1,0,0,0-2,0v9h-2V37a3,3,0,0,1,3-3h2.38l2.73,5.45a1,1,0,0,0,.89.55,1,1,0,0,0,.9-.55L54.68,34h2.38a3,3,0,0,1,3,3V48h-2V39a1,1,0,0,0-2,0v9Zm14,3a1,1,0,1,1-2,0V50h2Z" style="fill:#3b8686"/><path d="M38.06,37a3,3,0,0,0-2.34-2.93l-1.85-3.68a3,3,0,1,0-3.62,0l-1.84,3.68a3,3,0,0,0-.75,5.58,4.92,4.92,0,0,0-.6,2.35,5,5,0,0,0,1.11,3.13A3,3,0,0,0,26.06,48v6a3,3,0,0,0,2,2.83V61a1,1,0,1,0,2,0V57h4v4a1,1,0,1,0,2,0V56.85a3,3,0,0,0,2-2.83V48A3,3,0,0,0,36,45.15a4.94,4.94,0,0,0,.51-5.48A3,3,0,0,0,38.06,37Zm-3,1h-6a1,1,0,1,1,0-2h6a1,1,0,0,1,0,2Zm0,4a3,3,0,1,1-6,0,2.92,2.92,0,0,1,.79-2h4.43A2.91,2.91,0,0,1,35.06,42Zm-4.38-8,1.38-2.77L33.44,34Zm1.38-7a1,1,0,0,1,.3,1.95l-.07,0-.2,0H32l-.2,0-.07,0a1,1,0,0,1,.3-1.95Zm4,27a1,1,0,0,1-1,1h-6a1,1,0,0,1-1-1V48a1,1,0,0,1,1-1h6a1,1,0,0,1,1,1Z" style="fill:#3b8686"/></svg>