<?xml version="1.0" ?><svg data-name="Layer 1" id="Layer_1" viewBox="0 0 64 64" xmlns="http://www.w3.org/2000/svg"><title/><desc/><path d="M40.94,41.54a14.54,14.54,0,0,0,3.27-2.2,8,8,0,0,0-3,1.87Z" style="fill:#018667"/><path d="M33.06,48a4,4,0,0,1-4-4V39a5,5,0,0,1,4.12-4.92,7.91,7.91,0,0,0-3.19.19,8.17,8.17,0,0,0-5.93,8V53a1,1,0,0,0,1,1h14a1,1,0,0,0,1-1V48Z" style="fill:#cff09e"/><path d="M60.07,24.51A8,8,0,0,0,54.7,19a8,8,0,0,0-9.57-9.57A8,8,0,0,0,32.06,5.87,8,8,0,0,0,19,9.38,8,8,0,0,0,9.42,19,8,8,0,0,0,5.92,32a8,8,0,0,0,3.5,13.07A8,8,0,0,0,19,54.66a8,8,0,0,0,13.07,3.5,8,8,0,0,0,13.07-3.5,8,8,0,0,0,9.57-9.57A8,8,0,0,0,58.21,32,8,8,0,0,0,60.07,24.51ZM44.62,35.38a8,8,0,0,0-.07,3.85,8,8,0,0,0-3.3,2,7.87,7.87,0,0,0-1.19,1.53V53a1,1,0,0,1-1,1h-4v1a3,3,0,1,1-6,0V54h-4a1,1,0,0,1-1-1V42.74a7.87,7.87,0,0,0-1.19-1.53,8,8,0,0,0-3.29-2,8,8,0,0,0-.08-3.85A7.81,7.81,0,0,0,17.64,32a7.85,7.85,0,0,0,1.86-3.37,7.94,7.94,0,0,0,.08-3.84,7.95,7.95,0,0,0,5.27-5.28,8,8,0,0,0,7.21-1.93,8,8,0,0,0,7.21,1.93,7.93,7.93,0,0,0,5.28,5.28A8,8,0,0,0,46.48,32,7.92,7.92,0,0,0,44.62,35.38Z" style="fill:#a8dba8"/><path d="M41.06,29h-7v5.26a8,8,0,0,1,1.87.74h5.13l-3-3Z" style="fill:#a8dba8"/><path d="M28.19,35a8,8,0,0,1,1.87-.74V29h-7l3,3-3,3Z" style="fill:#a8dba8"/><path d="M24.06,50h16a0,0,0,0,1,0,0v3a1,1,0,0,1-1,1h-14a1,1,0,0,1-1-1V50A0,0,0,0,1,24.06,50Z" style="fill:#79bd9a"/><path d="M32.06,34a8.24,8.24,0,0,1,2,.26V27a2,2,0,0,0-4,0v7.26A8.24,8.24,0,0,1,32.06,34Z" style="fill:#79bd9a"/><circle cx="26.63" cy="11.73" r="2" style="fill:#cff09e"/><path d="M47.44,19.1a2,2,0,0,1-1.94-.52,2,2,0,0,1,0-2.82,1.88,1.88,0,0,1,.89-.52,2,2,0,0,1,2.52,1.93,2,2,0,0,1-.59,1.41A1.9,1.9,0,0,1,47.44,19.1Z" style="fill:#cff09e"/><path d="M17.74,48.8a2,2,0,0,1-1.94-3.35,2,2,0,0,1,.89-.51,2,2,0,0,1,2.52,1.93,2,2,0,0,1-.58,1.41A2.07,2.07,0,0,1,17.74,48.8Z" style="fill:#cff09e"/><path d="M12.29,28.52a1.9,1.9,0,0,1-1,0,2,2,0,0,1-1.41-2.44,2,2,0,0,1,2.44-1.42,2.05,2.05,0,0,1,1.22.93,2,2,0,0,1-1.22,2.94Z" style="fill:#cff09e"/><path d="M52.86,39.39a2,2,0,0,1-1,0,2,2,0,0,1-1.42-2.45,2,2,0,0,1,1.43-1.42,2,2,0,0,1,1,0A2,2,0,0,1,54.28,38,2,2,0,0,1,52.86,39.39Z" style="fill:#cff09e"/><path d="M32.06,37a1,1,0,0,0,0,2,3,3,0,0,1,3,3,1,1,0,1,0,2,0A5,5,0,0,0,32.06,37Z" style="fill:#3b8686"/><path d="M25.85,8.84a3,3,0,0,0-.72,5.49,2.93,2.93,0,0,0,1.49.41,3,3,0,1,0-.77-5.9Zm1,3.86a1,1,0,0,1-.75-.1,1,1,0,0,1-.47-.61,1,1,0,0,1,.71-1.22.75.75,0,0,1,.26,0,1,1,0,0,1,.25,2Z" style="fill:#3b8686"/><path d="M49,15.05a3,3,0,0,0-4.24,0,3,3,0,0,0,0,4.24,3,3,0,0,0,2.11.88,3.19,3.19,0,0,0,.8-.1A3,3,0,0,0,49,19.29a3,3,0,0,0,0-4.24Zm-1.41,2.83a.93.93,0,0,1-.44.25,1,1,0,0,1-1-.25,1,1,0,0,1-.29-.71,1,1,0,0,1,.29-.71,1.05,1.05,0,0,1,.44-.26l.28,0a1,1,0,0,1,.7.29,1,1,0,0,1,.29.71A1,1,0,0,1,47.62,17.88Z" style="fill:#3b8686"/><path d="M15.09,44.75a3,3,0,0,0,2.11,5.12,2.76,2.76,0,0,0,.8-.11A2.85,2.85,0,0,0,19.33,49a3,3,0,1,0-4.24-4.24ZM17,45.9l.27,0a1,1,0,0,1,1,1,1,1,0,0,1-.29.7.91.91,0,0,1-.44.26,1,1,0,0,1-1-.26,1,1,0,0,1-.29-.7,1,1,0,0,1,.29-.71A1,1,0,0,1,17,45.9Z" style="fill:#3b8686"/><path d="M14.38,25.08a3,3,0,0,0-1.83-1.39,3,3,0,1,0-.77,5.9,2.92,2.92,0,0,0,.77-.11,3,3,0,0,0,1.83-4.4Zm-1.64,1.76a1,1,0,0,1-.71.71h0a.89.89,0,0,1-.51,0,1,1,0,0,1-.61-.47,1,1,0,0,1-.1-.75,1,1,0,0,1,.72-.72,1,1,0,0,1,.24,0,.84.84,0,0,1,.27,0,1,1,0,0,1,.6.46A1,1,0,0,1,12.74,26.84Z" style="fill:#3b8686"/><path d="M53.12,34.56a3,3,0,1,0-.77,5.9,2.92,2.92,0,0,0,.77-.11,3,3,0,0,0,0-5.79Zm.19,3.15a1,1,0,0,1-.71.71.89.89,0,0,1-.51,0,1,1,0,0,1-.71-1.22,1,1,0,0,1,.72-.72l.24,0a.78.78,0,0,1,.26,0,1,1,0,0,1,.61.46A1,1,0,0,1,53.31,37.71Z" style="fill:#3b8686"/><path d="M61,24.25a9,9,0,0,0-5.21-6,9,9,0,0,0-10-10A9,9,0,0,0,32.06,4.57,9,9,0,0,0,18.34,8.25a9,9,0,0,0-10,10A9,9,0,0,0,4.61,32,9,9,0,0,0,8.29,45.74a9,9,0,0,0,10.05,10,9,9,0,0,0,13.72,3.68,9,9,0,0,0,5.43,1.84A9.4,9.4,0,0,0,39.83,61a9,9,0,0,0,6-5.21,9,9,0,0,0,10-10A9,9,0,0,0,59.51,32,9,9,0,0,0,61,24.25ZM20.47,35.12A9,9,0,0,0,19,32a9,9,0,0,0,1.76-6.56,8.94,8.94,0,0,0,4.79-4.8A9,9,0,0,0,29,20.43a8.82,8.82,0,0,0,3.1-1.53,8.92,8.92,0,0,0,6.56,1.76,9,9,0,0,0,4.8,4.8,8.92,8.92,0,0,0,.23,3.45A9.1,9.1,0,0,0,45.17,32a9,9,0,0,0-1.52,3.1h0a9,9,0,0,0-.23,3.46,9,9,0,0,0-2.54,1.61A9,9,0,0,0,38.76,36h2.3a1,1,0,0,0,.71-1.71L39.48,32l2.29-2.29A1,1,0,0,0,42,28.64a1,1,0,0,0-.93-.62h-6V27a3,3,0,1,0-6,0v1h-6a1,1,0,0,0-.92.62,1,1,0,0,0,.21,1.09L24.65,32l-2.3,2.29A1,1,0,0,0,23.06,36h2.3a9,9,0,0,0-2.11,4.17,9.12,9.12,0,0,0-2.54-1.61A9.17,9.17,0,0,0,20.47,35.12Zm6.3-3.81L25.48,30h3.58v3.51a9.27,9.27,0,0,0-1.12.49H25.48l1.29-1.29A1,1,0,0,0,26.77,31.31ZM31.06,27a1,1,0,1,1,2,0v6.05c-.33,0-.66,0-1,0s-.67,0-1,0Zm6.29,5.71L38.65,34H36.18a8.62,8.62,0,0,0-1.12-.49V30h3.59l-1.3,1.29A1,1,0,0,0,37.35,32.73ZM25.06,42a7,7,0,0,1,3.62-6.13,6.83,6.83,0,0,1,1.63-.64h0a6.66,6.66,0,0,1,3.49,0h0a6.83,6.83,0,0,1,1.63.64A7,7,0,0,1,39.06,42v.72h0V49h-14Zm0,9h14v2h-14Zm9,4a2,2,0,1,1-4,0ZM57.47,32.7a7,7,0,0,1-3.06,11.44,1,1,0,0,0-.68,1.17,7,7,0,0,1-8.37,8.38,1,1,0,0,0-1.18.67,7,7,0,0,1-10,4.08A4,4,0,0,0,36.06,55h3a2,2,0,0,0,2-2V43a6.85,6.85,0,0,1,.9-1.1,6.94,6.94,0,0,1,2.88-1.74A1,1,0,0,0,45.52,39a7.07,7.07,0,0,1,.06-3.36,6.94,6.94,0,0,1,1.63-2.94,1,1,0,0,0,0-1.36,7,7,0,0,1-1.63-2.95A7.07,7.07,0,0,1,45.52,25a1,1,0,0,0-.68-1.18A6.92,6.92,0,0,1,42,22.12a6.81,6.81,0,0,1-1.73-2.88,1,1,0,0,0-1.18-.68,7.11,7.11,0,0,1-3.37-.06,7,7,0,0,1-2.94-1.63,1,1,0,0,0-1.36,0,6.94,6.94,0,0,1-2.94,1.63,7.07,7.07,0,0,1-3.36.06,1,1,0,0,0-1.18.68,7,7,0,0,1-4.62,4.61A1,1,0,0,0,18.6,25a6.82,6.82,0,0,1-.06,3.36,7,7,0,0,1-1.63,2.95,1,1,0,0,0,0,1.36,6.94,6.94,0,0,1,1.63,2.94A6.83,6.83,0,0,1,18.6,39a1,1,0,0,0,.68,1.18,6.94,6.94,0,0,1,2.88,1.74,6.76,6.76,0,0,1,.9,1.1V53a2,2,0,0,0,2,2h3A4,4,0,0,0,30,58.44a7,7,0,0,1-10-4.08,1,1,0,0,0-1.17-.67,7,7,0,0,1-8.37-8.38,1,1,0,0,0-.68-1.17A7,7,0,0,1,6.65,32.7a1,1,0,0,0,0-1.36A7,7,0,0,1,9.71,19.9a1,1,0,0,0,.68-1.18,7,7,0,0,1,8.38-8.37,1,1,0,0,0,1.17-.68A7,7,0,0,1,31.38,6.61a1,1,0,0,0,1.36,0A7,7,0,0,1,44.18,9.67a1,1,0,0,0,1.18.68,7,7,0,0,1,8.37,8.37,1,1,0,0,0,.68,1.18,7,7,0,0,1,3.06,11.44A1,1,0,0,0,57.47,32.7Z" style="fill:#3b8686"/></svg>